PathFileType	4	(X/Y/Z)	..\data\2014031\dynamic\2014031_C5_05.trc
DataRate	CameraRate	NumFrames	NumMarkers	Units	OrigDataRate	OrigDataStartFrame	OrigNumFrames
100.000000	100.000000	4	52	mm	100.000000	95	153
Frame#	Time	L_IAS			L_IPS			R_IPS			R_IAS			L_FTC			L_FLE			L_FME			L_FAX			L_TTC			L_FAL			L_TAM			L_FCC			L_FM1			L_FM2			L_FM5			R_FTC			R_FLE			R_FME			R_FAX			R_TTC			R_FAL			R_TAM			R_FCC			R_FM1			R_FM2			R_FM5			CV7			TV10			SXS			SJN			L_SIA			L_SRS			L_SAA			L_SAE			L_HLE			L_HME			L_UOA			L_RSP			L_UHE			L_HM2			L_HM5			R_SIA			R_SRS			R_SAA			R_SAE			R_HLE			R_HME			R_UOA			R_RSP			R_UHE			R_HM2			R_HM5			
		X1	Y1	Z1	X2	Y2	Z2	X3	Y3	Z3	X4	Y4	Z4	X5	Y5	Z5	X6	Y6	Z6	X7	Y7	Z7	X8	Y8	Z8	X9	Y9	Z9	X10	Y10	Z10	X11	Y11	Z11	X12	Y12	Z12	X13	Y13	Z13	X14	Y14	Z14	X15	Y15	Z15	X16	Y16	Z16	X17	Y17	Z17	X18	Y18	Z18	X19	Y19	Z19	X20	Y20	Z20	X21	Y21	Z21	X22	Y22	Z22	X23	Y23	Z23	X24	Y24	Z24	X25	Y25	Z25	X26	Y26	Z26	X27	Y27	Z27	X28	Y28	Z28	X29	Y29	Z29	X30	Y30	Z30	X31	Y31	Z31	X32	Y32	Z32	X33	Y33	Z33	X34	Y34	Z34	X35	Y35	Z35	X36	Y36	Z36	X37	Y37	Z37	X38	Y38	Z38	X39	Y39	Z39	X40	Y40	Z40	X41	Y41	Z41	X42	Y42	Z42	X43	Y43	Z43	X44	Y44	Z44	X45	Y45	Z45	X46	Y46	Z46	X47	Y47	Z47	X48	Y48	Z48	X49	Y49	Z49	X50	Y50	Z50	X51	Y51	Z51	X52	Y52	Z52	

96	0.9500000000000001	1206.678100585938	929.7130126953127	-313.4469604492188	1010.409912109375	949.9512939453127	-271.4949951171876	1000.484252929688	956.0007324218752	-168.2096405029297	1186.320922851563	933.9136962890627	-85.15206146240236	1122.654174804688	845.2669677734377	-396.6005859375001	1289.235961914063	466.4058532714845	-349.7619934082032	1289.678100585938	459.800018310547	-217.0797119140626	1305.48486328125	408.3804016113282	-347.7069702148438	1363.3076171875	434.2572021484376	-290.4313354492188	1426.130249023438	79.6598587036133	-308.0609130859376	1449.599609375	112.9447631835938	-221.9807891845704	1412.033569335938	16.69785499572754	-255.9036712646485	1583.68701171875	105.1253738403321	-227.6177215576172	1579.037841796875	115.0580291748047	-282.9044799804688	1552.297607421875	77.10214233398439	-325.7625427246094	1090.163940429688	849.8325195312502	-26.27910232543946	991.6782836914065	459.6438293457032	-82.12048339843751	993.9809570312502	454.3820800781251	-210.7023468017579	961.8789062500002	401.7212829589845	-83.60707855224611	1017.951538085938	382.9074707031251	-140.7483367919922	799.7969360351565	94.79850006103517	-135.2176055908203	834.2852783203127	108.966064453125	-221.0452728271485	749.1851196289064	55.09832000732423	-188.4449615478516	939.1716918945315	20.27289390563965	-198.0076751708985	946.5061645507815	35.36288070678712	-137.94970703125	895.635925292969	19.0400447845459	-91.27843475341798	1068.27197265625	1478.011108398438	-203.7903594970704	981.8326416015627	1201.420532226563	-211.2071685791016	1204.582275390625	1191.449096679688	-210.2417144775391	1180.396850585938	1386.833251953125	-211.3462371826172	972.9080810546877	1229.805541992188	-311.8130798339844	1027.587646484375	1386.8359375	-338.4298095703126	1072.012939453125	1377.532592773438	-400.4721069335939	1119.781372070313	1375.738037109375	-405.9746704101564	1001.696105957031	1058.933715820313	-469.4107971191407	959.676696777344	1053.028930664063	-393.6665954589845	958.9370727539065	1046.911376953125	-444.1638793945314	1023.7734375	796.354431152344	-408.3000793457032	1002.611328125	803.5647583007815	-486.1814880371095	1033.793701171875	709.1328735351564	-409.9183959960939	974.2627563476565	729.8898925781251	-491.2283020019532	978.4529418945315	1231.992797851563	-104.4216461181641	1027.5146484375	1388.763305664063	-81.27831268310548	1082.75146484375	1388.504638671875	-22.38697624206543	1129.257934570313	1380.589233398438	-10.52378463745117	1194.11083984375	1051.471435546875	68.55995941162111	1153.513793945313	1018.889831542969	-3.633575201034547	1160.881103515625	1004.672241210938	39.96109008789063	1414.978759765625	956.1141357421877	-27.18868064880372	1399.118408203125	906.8660888671877	32.20833969116212	1501.116088867188	922.7307739257815	-37.79123306274415	1459.742797851563	848.8428955078127	17.81285285949707	
97	0.96	1224.497802734375	927.549255371094	-313.2308349609376	1028.090454101563	947.7288208007815	-272.6325073242188	1017.61181640625	953.6043701171877	-169.5194549560547	1202.698608398438	931.567077636719	-84.7703094482422	1140.999267578125	843.6311645507815	-397.2379150390626	1306.944946289063	464.7312011718751	-349.6656188964844	1306.63134765625	457.9629211425782	-216.940902709961	1323.094970703125	406.6121520996095	-347.5176696777344	1380.619384765625	432.7100524902345	-289.8773498535157	1443.433715820313	78.37862396240236	-307.4291992187501	1466.492553710938	111.5997924804688	-221.1919097900391	1428.373046875	16.16532707214356	-255.3198547363282	1600.244995117188	102.9735260009766	-225.9721984863282	1596.244750976563	112.4985885620117	-281.4371032714844	1569.371459960938	74.61873626708986	-324.2111206054688	1105.414916992188	847.8653564453127	-26.82246589660645	1003.323364257813	459.0547180175782	-81.95271301269533	1007.043334960938	453.131561279297	-210.4009857177735	972.1082763671877	401.7605895996095	-83.36183166503908	1028.3916015625	381.0542297363282	-139.8224487304688	801.8823852539065	98.9406661987305	-134.4663848876953	837.0692138671877	111.9427871704102	-220.0532226562501	750.2473754882814	60.77870559692384	-187.8771209716797	939.1184692382815	19.84177589416504	-197.9695587158204	946.526550292969	35.19710159301759	-138.0008239746094	895.2904052734377	18.36093521118164	-91.41584777832033	1083.640747070313	1475.799926757813	-206.1125946044922	997.9486083984377	1199.042236328125	-212.548080444336	1220.969848632813	1189.424194335938	-210.7919158935547	1196.31396484375	1384.67431640625	-212.5845489501954	989.5910644531252	1227.044921875	-313.2667236328126	1044.399780273438	1384.244750976563	-340.5347900390626	1089.168823242188	1374.658081054688	-402.2794189453126	1136.894165039063	1372.800415039063	-407.6458740234376	1014.253479003906	1057.394287109375	-469.0454711914064	972.3510742187502	1052.7607421875	-393.2256469726564	971.2107543945315	1046.45556640625	-443.6148681640626	1030.28564453125	794.8084716796877	-407.6060791015626	1009.091674804688	802.1680297851565	-485.3878479003907	1038.338623046875	707.5652465820314	-408.6136474609376	978.7600097656252	729.1514282226564	-489.7120056152345	994.0183105468752	1229.666870117188	-106.4082260131836	1042.479858398438	1386.352661132813	-83.52425384521486	1097.034545898438	1386.674072265625	-24.19574356079102	1143.582275390625	1379.067626953125	-11.98079967498779	1210.768676757813	1050.859130859375	67.92634582519533	1171.054565429688	1017.32568359375	-4.28175449371338	1178.650146484375	1003.236083984375	39.47067642211915	1433.820068359375	961.373962402344	-28.91613578796387	1419.547973632813	911.4803466796877	30.23631477355958	1520.80078125	930.8266601562502	-39.77626419067384	1481.920043945313	855.2525634765627	15.4030179977417	
98	0.97	1242.455688476563	925.8516845703127	-313.2061767578126	1045.882568359375	945.832458496094	-273.6536560058594	1035.0146484375	951.3999023437502	-170.6658325195313	1219.478393554688	929.3271484375002	-84.63238525390626	1159.634155273438	842.577819824219	-398.056610107422	1325.0712890625	463.5438537597657	-349.6098937988282	1324.0361328125	456.7647399902345	-216.9635162353516	1340.708740234375	405.210906982422	-347.4114074707032	1398.043090820313	431.1583862304689	-289.3774108886719	1457.459106445313	76.69246673583986	-306.8338012695313	1480.366821289063	109.5453872680664	-220.3836669921876	1440.683349609375	15.64088249206543	-254.8181304931641	1613.51220703125	98.56633758544925	-224.2993621826172	1610.318725585938	107.7402877807617	-279.9811096191407	1582.914306640625	70.37281799316408	-322.7517089843751	1121.179809570313	845.8950805664065	-27.4751091003418	1015.846496582031	458.4653625488282	-81.75575256347658	1021.101501464844	451.6548156738282	-209.9934234619141	983.1652832031252	401.8739624023439	-83.05415344238283	1039.666015625	379.1048278808594	-138.6527557373047	804.517028808594	103.6813430786133	-133.6119232177735	840.565124511719	115.2723159790039	-218.8577423095704	751.9798583984376	67.32917785644533	-187.2786712646485	938.8889160156252	19.36815834045411	-198.098129272461	946.357604980469	34.95061111450196	-138.2155914306641	894.702331542969	17.66694068908692	-91.70897674560548	1099.024047851563	1473.808349609375	-208.5213165283204	1014.17822265625	1196.857299804688	-213.8120574951172	1237.5400390625	1187.7236328125	-211.4575195312501	1212.284057617188	1382.814453125	-213.9297332763672	1006.442321777344	1224.441284179688	-314.6854248046876	1061.208129882813	1381.84765625	-342.6824951171876	1106.307006835938	1372.025756835938	-404.1232299804689	1154.01171875	1370.154174804688	-409.3616943359376	1027.320556640625	1056.0537109375	-468.8164672851564	985.5731201171877	1052.584838867188	-392.9471130371095	983.9888305664065	1046.101806640625	-443.2196044921876	1038.117797851563	793.6391601562502	-406.9743652343751	1016.771423339844	801.0398559570315	-484.6427001953126	1044.305786132813	706.3855590820314	-407.3108215332032	984.6099243164065	728.6784667968751	-488.1930541992189	1009.8330078125	1227.531860351563	-108.3365249633789	1057.487182617188	1384.154174804688	-85.8776092529297	1111.395141601563	1385.144897460938	-26.09498977661134	1157.969360351563	1377.897583007813	-13.52154731750489	1226.8837890625	1050.412841796875	67.10256195068361	1188.172973632813	1016.054870605469	-5.159714221954347	1195.869384765625	1002.054077148438	38.71572875976563	1451.923950195313	966.2457275390627	-30.49621200561524	1439.047241210938	915.8150634765627	28.42739486694337	1539.555419921875	938.2195434570315	-41.56651687622071	1502.918334960938	861.2222290039065	13.21335601806641	
99	0.98	1260.505126953125	924.657653808594	-313.3940124511719	1063.728637695313	944.2988281250002	-274.5413818359376	1052.63916015625	949.4101562500002	-171.6162109375	1236.638305664063	927.201599121094	-84.7760467529297	1178.475341796875	842.1150512695315	-399.0553588867189	1343.554565429688	462.839324951172	-349.5937194824219	1341.798583984375	456.191864013672	-217.1356811523438	1358.336547851563	404.1990051269532	-347.3797302246094	1415.542602539063	429.6556396484376	-288.9183959960938	1468.601196289063	74.6979217529297	-306.2864074707032	1491.568725585938	106.9159469604492	-219.5619659423829	1449.461547851563	15.15361404418946	-254.4290618896485	1623.892211914063	92.2022171020508	-222.603012084961	1621.666137695313	101.1013259887696	-278.5379333496094	1593.373291015625	64.67852020263673	-321.4406127929688	1137.46923828125	843.9133300781252	-28.23554420471192	1029.3740234375	457.8268432617189	-81.5208206176758	1036.287841796875	449.8977355957032	-209.4641723632813	995.2024536132815	402.0259094238282	-82.67137145996095	1051.906860351563	377.0423583984376	-137.2155151367188	807.8828125000002	109.067626953125	-132.6623687744141	844.9522094726565	118.9653396606446	-217.4576263427735	754.6290283203126	74.84149169921876	-186.676986694336	938.4763793945315	18.92653846740723	-198.4133453369141	945.9753417968752	34.64362716674805	-138.5989379882813	893.8665771484377	17.09325599670411	-92.18800354003908	1114.442504882813	1472.064697265625	-210.9997100830079	1030.538696289063	1194.88720703125	-214.9876556396485	1254.292724609375	1186.37255859375	-212.2256317138672	1228.299682617188	1381.280395507813	-215.3727264404297	1023.443725585938	1222.005493164063	-316.0414733886719	1077.992797851563	1379.658935546875	-344.8529052734376	1123.393310546875	1369.649169921875	-405.987518310547	1171.108764648438	1367.8154296875	-411.1133422851564	1040.91064453125	1054.885620117188	-468.7191772460939	999.3586425781252	1052.461547851563	-392.8206481933595	997.3103637695315	1045.812377929688	-442.9699096679689	1047.288818359375	792.7634277343752	-406.4439697265626	1025.694458007813	800.1234130859377	-483.9877014160157	1051.721557617188	705.4993286132814	-406.0635375976564	991.8701782226565	728.3953857421876	-486.7412414550782	1025.879638671875	1225.623168945313	-110.1859588623047	1072.542236328125	1382.208251953125	-88.31801605224611	1125.842163085938	1383.945556640625	-28.06884765625001	1172.429931640625	1377.095336914063	-15.13109683990479	1242.48876953125	1050.12939453125	66.11867523193361	1204.834594726563	1015.089782714844	-6.237418174743654	1212.525756835938	1001.129333496094	37.72683334350587	1469.31982421875	970.6934204101565	-31.92233848571778	1457.626342773438	919.8050537109377	26.77799034118653	1557.4384765625	944.8564453125002	-43.14730453491212	1522.757080078125	866.6638183593752	11.2332992553711	
